<?xml version="1.0" standalone="no"?>
<!DOCTYPE svg PUBLIC "-//W3C//DTD SVG 20010904//EN"
 "http://www.w3.org/TR/2001/REC-SVG-20010904/DTD/svg10.dtd">
<svg version="1.0" xmlns="http://www.w3.org/2000/svg"
 width="1958.000000pt" height="1389.000000pt" viewBox="0 0 1958.000000 1389.000000"
 preserveAspectRatio="xMidYMid meet">

<g transform="translate(0.000000,1389.000000) scale(0.100000,-0.100000)"
fill="#000000" stroke="none">
<path d="M8482 10764 c2 -8 35 -29 73 -45 39 -16 84 -36 100 -43 17 -8 57 -26
90 -41 91 -41 304 -149 357 -181 202 -122 252 -154 321 -203 44 -31 89 -63
100 -71 42 -27 153 -126 272 -240 314 -301 539 -472 812 -618 66 -35 202 -79
268 -87 57 -6 62 -5 103 27 38 29 42 37 42 75 0 44 -11 61 -104 162 -96 102
-337 300 -511 420 -111 76 -164 111 -169 111 -3 0 -30 15 -59 34 -168 108
-470 264 -702 363 -71 30 -159 68 -195 83 -36 16 -117 47 -180 70 -63 22 -155
56 -205 74 -146 55 -369 126 -394 126 -15 0 -21 -5 -19 -16z"/>
<path d="M8214 10469 c-3 -6 -2 -15 2 -19 9 -9 237 -105 284 -120 47 -14 567
-283 650 -335 111 -70 303 -198 341 -227 197 -151 325 -267 510 -464 84 -90
139 -118 216 -112 71 6 93 29 93 97 -1 72 -28 119 -121 203 -285 260 -737 551
-1099 709 -147 63 -260 109 -320 129 -190 61 -259 82 -380 114 -147 39 -165
42 -176 25z"/>
<path d="M8340 10002 c0 -15 19 -25 83 -45 45 -14 120 -40 166 -57 90 -32 402
-183 423 -203 7 -7 40 -31 73 -52 197 -130 369 -292 511 -485 27 -36 59 -65
93 -84 46 -25 62 -28 141 -27 118 0 159 22 160 86 0 23 -12 41 -57 83 -67 63
-253 205 -363 276 -41 27 -97 64 -125 82 -27 18 -84 51 -125 74 -41 22 -82 45
-90 50 -20 12 -230 110 -236 110 -3 0 -24 9 -47 19 -107 49 -268 105 -427 150
-41 12 -89 26 -106 31 -48 16 -74 13 -74 -8z"/>
<path d="M8256 9581 c-10 -16 19 -30 110 -56 108 -31 122 -36 254 -93 58 -25
116 -54 129 -64 13 -10 27 -18 32 -18 7 0 108 -63 195 -121 21 -15 80 -69 129
-121 50 -52 106 -103 125 -113 53 -28 155 -26 203 4 32 20 37 27 37 62 0 31
-8 47 -37 80 -79 88 -362 247 -573 322 -93 33 -269 80 -423 111 -85 18 -173
21 -181 7z"/>
<path d="M10416 8928 c-14 -352 -17 -498 -9 -498 4 0 69 -5 143 -10 755 -56
1539 -253 2148 -541 58 -27 110 -49 117 -49 7 0 19 26 27 58 9 31 36 132 62
224 25 91 46 174 46 185 0 13 -31 35 -103 75 -612 340 -1222 546 -1921 648
-137 20 -423 50 -477 50 l-27 0 -6 -142z"/>
<path d="M14085 8900 c-197 -41 -269 -86 -484 -302 -270 -269 -458 -530 -614
-851 -83 -169 -137 -313 -205 -547 -91 -312 -131 -759 -99 -1117 l14 -163 84
-87 c104 -109 152 -186 172 -278 30 -133 30 -180 3 -339 -35 -203 -35 -345 -1
-454 34 -107 76 -187 124 -237 32 -34 58 -48 128 -71 62 -20 118 -49 190 -97
l103 -69 52 7 c139 19 219 63 320 176 35 38 83 83 108 98 209 131 681 411 693
411 2 0 53 28 113 63 61 34 202 109 315 166 112 57 211 107 219 111 8 5 56 27
105 50 50 23 126 59 170 80 71 34 156 73 250 114 17 8 44 18 60 24 51 17 329
134 340 142 6 4 26 12 45 18 19 6 87 28 150 50 63 22 153 52 200 67 47 14 94
31 105 36 23 11 107 35 185 53 30 7 93 25 140 40 165 52 178 56 199 56 12 0
43 6 69 14 72 22 417 85 523 97 52 5 101 13 109 16 8 3 148 9 310 12 l295 6
12 50 c16 64 8 109 -29 150 -53 61 -189 141 -338 200 -280 110 -464 231 -675
444 -204 206 -452 423 -655 574 -74 55 -157 117 -185 137 -71 53 -229 157
-405 267 -75 47 -399 233 -406 233 -3 0 -35 17 -72 38 -76 43 -459 225 -572
273 -343 143 -550 219 -824 304 -127 39 -258 53 -341 35z m28 -625 c90 -16
202 -52 277 -90 140 -71 127 -63 310 -185 38 -26 98 -72 223 -173 66 -54 260
-241 429 -413 38 -38 78 -77 90 -86 13 -9 91 -73 173 -140 184 -151 245 -191
245 -159 0 5 -57 65 -126 133 -69 68 -162 168 -206 222 -112 138 -236 331
-222 345 5 5 60 -57 79 -89 71 -119 435 -516 543 -592 224 -159 299 -203 408
-243 93 -35 191 -55 302 -64 129 -11 141 -28 29 -43 -165 -21 -534 71 -780
193 -88 44 -123 48 -160 19 -65 -52 -299 -128 -479 -156 -125 -20 -401 -23
-543 -6 -160 20 -437 81 -510 113 -11 4 -67 26 -125 48 -133 49 -190 75 -215
96 -19 16 -18 16 20 10 22 -4 93 -24 158 -46 167 -55 177 -54 146 25 -15 36
-22 84 -26 166 -5 99 -3 124 16 185 25 80 81 185 122 228 33 35 35 44 12 69
-13 15 -31 18 -102 18 -48 0 -110 -6 -138 -13 -60 -16 -80 -9 -64 20 12 23 84
57 157 74 87 20 287 15 384 -10 157 -41 343 -121 480 -209 70 -44 99 -42 59 5
-56 64 -291 285 -384 360 -242 195 -471 314 -677 353 -43 8 -68 17 -68 25 0
28 44 31 163 10z m-836 -574 c-41 -44 -76 -106 -138 -250 -22 -48 -88 -245
-112 -331 -61 -215 -87 -504 -68 -751 10 -140 15 -169 40 -223 39 -87 89 -138
183 -188 46 -25 92 -58 108 -78 l27 -35 -4 -195 c-4 -167 -3 -201 12 -240 20
-55 23 -82 9 -87 -13 -4 -51 86 -64 157 -6 30 -15 104 -21 163 -12 145 -21
160 -122 208 -100 47 -146 86 -191 162 -57 97 -71 174 -70 387 3 419 104 838
291 1205 55 109 63 119 112 145 57 29 60 7 8 -49z m4241 -902 c23 -17 42 -35
42 -40 0 -15 -33 -26 -93 -32 -31 -3 -82 -17 -113 -31 -65 -30 -124 -41 -124
-23 1 22 55 65 140 110 47 26 90 46 96 47 5 0 29 -14 52 -31z m-1188 -764 c0
-5 -78 -40 -145 -65 -133 -49 -440 -113 -625 -130 -117 -11 -389 -51 -515 -75
-16 -4 -62 -12 -100 -20 -72 -14 -219 -50 -429 -104 -111 -29 -351 -106 -420
-136 -17 -7 -56 -23 -86 -35 -164 -65 -348 -170 -406 -232 -100 -106 -124
-166 -124 -321 0 -133 27 -211 97 -282 30 -31 53 -59 51 -64 -2 -4 -19 -3 -38
2 -51 13 -171 139 -194 202 -26 75 -35 123 -35 195 -1 150 60 275 201 412 82
78 168 131 318 193 119 49 449 154 530 169 66 12 140 40 140 53 0 22 -50 23
-409 6 -161 -7 -331 -17 -377 -23 -88 -10 -130 -5 -101 12 30 16 244 48 392
58 83 6 197 15 255 20 58 5 263 9 455 10 193 0 397 5 455 10 58 6 200 17 315
25 191 13 371 35 530 65 89 17 217 48 223 55 6 6 42 7 42 0z m610 -5 c0 -5
-17 -12 -37 -16 -21 -3 -76 -19 -123 -34 -47 -15 -101 -31 -120 -35 -19 -3
-53 -13 -75 -20 -37 -13 -113 -36 -335 -101 -47 -14 -116 -35 -155 -46 -62
-19 -339 -109 -420 -137 -391 -135 -620 -244 -788 -372 -58 -43 -109 -79 -115
-79 -5 0 -16 -7 -23 -17 -14 -16 -96 -74 -147 -103 -15 -8 -65 -38 -112 -67
-238 -143 -472 -223 -652 -223 -94 0 -138 6 -138 20 0 4 57 10 128 14 173 9
277 39 479 139 165 82 336 200 550 379 84 70 152 108 313 178 180 77 269 110
505 185 83 27 166 54 185 61 19 7 76 24 125 38 50 15 104 31 120 37 17 6 44
14 60 16 17 3 68 17 115 30 47 14 101 29 120 33 19 4 60 14 90 22 30 9 118 30
195 48 77 17 158 38 180 45 50 16 75 18 75 5z"/>
<path d="M15542 7067 c-14 -18 -24 -95 -12 -102 5 -3 26 10 47 28 33 31 36 37
23 51 -22 27 -47 37 -58 23z"/>
<path d="M9405 8835 c-266 -50 -573 -129 -795 -203 -200 -68 -430 -163 -430
-179 0 -13 87 -426 95 -450 3 -8 38 0 112 24 340 113 794 217 1119 259 160 20
270 -184 187 -346 -16 -30 -45 -67 -65 -83 -34 -27 -50 -31 -220 -53 -101 -13
-272 -40 -381 -59 -189 -33 -583 -122 -639 -143 l-26 -11 14 -58 c8 -32 41
-186 74 -343 33 -157 69 -325 80 -375 11 -49 43 -196 71 -325 27 -129 51 -235
52 -236 1 -1 286 -3 632 -5 l631 -4 74 37 c226 112 371 370 396 708 16 223
-64 479 -197 624 l-61 66 32 80 c17 45 38 127 46 183 62 405 -129 759 -473
878 -78 27 -224 33 -328 14z m433 -1588 c68 -46 102 -120 102 -222 0 -88 -16
-131 -64 -179 l-42 -43 -150 -7 c-82 -3 -274 -13 -427 -22 -153 -9 -281 -13
-284 -11 -9 9 -64 371 -61 402 3 30 3 30 93 42 99 13 608 61 695 65 77 4 100
0 138 -25z"/>
<path d="M7898 8470 c-99 -53 -145 -166 -193 -475 -33 -218 -6 -569 67 -850
51 -201 116 -391 192 -562 20 -45 36 -85 36 -90 0 -15 45 -53 63 -53 23 0 21
15 -7 86 -91 229 -155 646 -142 929 11 230 39 456 76 610 20 83 51 197 66 240
47 136 -40 227 -158 165z"/>
<path d="M675 8460 c-11 -18 7 -30 87 -57 40 -14 84 -33 98 -42 14 -9 41 -24
60 -32 19 -9 55 -33 78 -53 24 -20 55 -36 68 -36 20 0 24 5 24 30 0 47 -50 94
-128 123 -186 67 -274 88 -287 67z"/>
<path d="M7370 8384 c-94 -41 -164 -153 -205 -331 -65 -280 -54 -607 29 -838
59 -165 92 -225 124 -225 10 0 13 7 9 23 -51 195 -59 242 -64 352 -10 245 67
530 193 716 65 96 88 195 63 267 -8 24 -20 34 -47 42 -48 13 -60 12 -102 -6z"/>
<path d="M1312 8257 c-7 -8 -14 -34 -15 -58 -2 -41 0 -43 48 -72 202 -122 526
-256 915 -381 96 -30 193 -65 215 -76 53 -27 77 -26 73 2 -2 16 -30 39 -98 80
-52 32 -130 80 -172 106 -43 26 -90 54 -105 62 -16 9 -68 38 -118 66 -113 64
-340 174 -357 174 -8 0 -22 6 -33 14 -29 19 -232 84 -291 91 -38 6 -53 4 -62
-8z"/>
<path d="M7570 8046 c-6 -8 -26 -16 -43 -18 -27 -3 -36 -11 -61 -57 -37 -70
-76 -182 -83 -244 l-6 -49 56 7 c50 6 61 4 102 -20 25 -14 51 -25 56 -23 7 2
12 64 14 163 2 92 8 174 15 193 7 18 9 39 6 47 -7 19 -40 19 -56 1z"/>
<path d="M6965 7944 c-22 -9 -60 -19 -85 -24 -40 -7 -98 -23 -400 -109 -41
-12 -91 -28 -110 -36 -19 -7 -66 -26 -105 -41 -169 -65 -367 -187 -419 -257
-30 -40 -11 -55 49 -39 61 16 118 15 162 -3 51 -21 77 -19 168 15 44 17 96 34
115 39 19 5 82 23 140 39 58 17 155 40 215 52 61 11 124 25 140 30 17 5 63 12
102 16 40 3 77 12 82 18 4 6 11 47 14 91 4 44 10 109 13 143 9 85 -3 95 -81
66z"/>
<path d="M11290 7875 c0 -7 -96 -826 -170 -1456 -22 -185 -40 -350 -40 -367
l0 -32 230 0 230 0 5 23 c2 12 23 128 45 257 23 129 56 323 75 430 19 107 55
314 80 460 25 146 56 326 70 400 31 168 31 176 3 182 -432 93 -528 111 -528
103z"/>
<path d="M5020 7790 c-11 -11 -20 -25 -20 -30 0 -28 37 -74 107 -135 96 -83
177 -183 203 -253 16 -43 20 -77 20 -191 0 -237 42 -383 123 -428 31 -17 152
-16 220 2 117 30 209 99 243 181 46 110 -30 238 -216 361 -145 96 -220 166
-345 321 -36 46 -91 102 -122 126 -84 66 -174 85 -213 46z"/>
<path d="M2703 7734 c-9 -24 18 -46 130 -109 89 -50 227 -183 294 -281 77
-114 134 -251 149 -359 14 -107 66 -335 100 -440 40 -126 123 -297 181 -376
128 -173 241 -254 418 -300 92 -24 127 -24 205 3 110 39 190 142 190 247 0
107 70 275 157 378 67 79 78 114 63 191 -16 75 -56 144 -126 215 -90 92 -91
92 -228 90 -106 -2 -126 1 -177 22 -61 26 -113 60 -194 124 -290 233 -610 421
-943 555 -144 58 -207 70 -219 40z"/>
<path d="M656 7651 c-4 -6 -5 -15 -1 -20 5 -9 80 -35 175 -61 25 -7 63 -18 86
-26 114 -40 315 -65 353 -45 26 14 28 52 4 73 -61 54 -183 78 -424 85 -134 4
-188 3 -193 -6z"/>
<path d="M1564 7630 c-27 -11 -37 -36 -24 -60 20 -37 12 -80 -21 -111 -17 -16
-35 -29 -41 -29 -5 0 -8 -15 -6 -32 4 -47 -13 -42 453 -118 204 -33 536 -60
735 -60 171 0 211 8 218 42 5 27 -45 50 -368 165 -139 49 -205 70 -375 119
-95 27 -291 65 -410 79 -137 17 -133 17 -161 5z"/>
<path d="M4811 7422 c-30 -23 -31 -62 -5 -117 13 -27 19 -60 18 -105 -1 -82
-31 -150 -106 -242 -84 -102 -86 -140 -7 -151 23 -3 84 -26 136 -51 52 -25
105 -46 119 -46 40 0 103 40 135 86 21 31 35 69 45 123 13 70 13 89 0 163 -34
193 -142 333 -273 354 -30 4 -44 1 -62 -14z"/>
<path d="M1561 7085 c-63 -8 -125 -22 -138 -30 -80 -53 -36 -182 74 -219 61
-21 82 -20 291 8 333 45 598 69 1004 89 74 3 108 23 108 63 0 37 -36 51 -155
63 -60 6 -159 16 -220 22 -183 18 -830 21 -964 4z"/>
<path d="M1015 6949 c-27 -11 -109 -35 -182 -53 -193 -49 -255 -86 -178 -108
76 -21 528 8 575 37 21 13 7 105 -20 127 -31 25 -129 24 -195 -3z"/>
<path d="M2755 6769 c-160 -17 -402 -50 -470 -63 -38 -8 -101 -20 -140 -26
-122 -21 -493 -110 -538 -129 -124 -53 -53 -221 93 -221 45 0 126 21 330 86
74 23 194 61 265 84 207 65 445 150 514 184 68 33 88 53 78 80 -7 17 -12 18
-132 5z"/>
<path d="M2885 6466 c-71 -18 -164 -43 -205 -55 -314 -92 -450 -135 -482 -152
-20 -10 -43 -19 -50 -19 -24 0 -272 -97 -379 -148 -122 -58 -164 -99 -162
-159 2 -66 64 -123 141 -131 65 -6 135 18 231 78 164 103 460 252 571 288 36
11 103 33 150 47 85 27 269 117 319 156 49 39 63 85 35 113 -20 20 -16 21
-169 -18z"/>
<path d="M1265 6386 c-27 -7 -76 -22 -107 -34 -32 -12 -102 -33 -158 -47 -110
-28 -146 -41 -174 -64 -10 -9 -43 -29 -75 -46 -94 -50 -66 -80 47 -51 33 9 86
16 118 16 33 0 91 6 129 14 39 8 108 22 155 31 240 47 250 51 250 101 0 48
-14 70 -51 83 -39 14 -69 13 -134 -3z"/>
<path d="M3020 6125 c-68 -29 -132 -66 -187 -108 -175 -134 -315 -238 -356
-263 -26 -16 -85 -53 -130 -81 -45 -29 -87 -53 -93 -53 -6 0 -22 -9 -36 -19
-13 -11 -36 -23 -50 -26 -14 -4 -40 -19 -57 -33 -115 -98 63 -242 214 -173 22
10 101 74 175 142 74 68 158 142 185 163 28 22 68 56 91 75 63 55 136 105 205
142 141 74 210 145 195 202 -15 62 -65 72 -156 32z"/>
<path d="M18110 6129 c-47 -5 -114 -10 -149 -12 -87 -6 -97 -22 -56 -91 46
-79 85 -209 85 -286 0 -55 3 -70 15 -70 26 0 133 183 191 326 19 49 38 94 40
100 5 12 -22 45 -34 43 -4 -1 -45 -5 -92 -10z"/>
<path d="M17582 6079 c-40 -5 -81 -13 -92 -19 -10 -5 -32 -10 -49 -10 -16 0
-56 -7 -88 -16 -32 -9 -76 -19 -98 -23 -22 -4 -49 -12 -60 -18 -11 -6 -36 -13
-56 -17 -52 -9 -63 -26 -49 -73 18 -64 25 -291 10 -366 -29 -154 22 -114 125
98 40 83 84 187 99 231 56 171 109 148 164 -71 26 -99 52 -244 52 -283 0 -36
22 -59 39 -39 6 8 17 31 25 53 8 21 24 64 35 94 21 53 47 162 70 286 14 79 14
157 -1 172 -13 13 -20 13 -126 1z"/>
<path d="M3230 5828 c-218 -190 -525 -519 -648 -695 -30 -43 -28 -77 6 -103
24 -19 35 -21 87 -15 68 7 163 46 194 79 37 39 402 586 424 636 4 8 25 44 47
79 22 34 40 74 40 87 0 46 -40 27 -150 -68z"/>
<path d="M16823 5878 c-41 -13 -50 -40 -26 -76 11 -15 24 -40 31 -55 18 -42
45 -32 53 18 3 22 11 53 18 69 22 54 -2 67 -76 44z"/>
<path d="M1339 5871 c-36 -12 -62 -27 -164 -94 -49 -33 -137 -84 -195 -113
-109 -55 -155 -88 -145 -105 9 -13 47 -11 96 7 24 8 98 31 164 50 133 39 368
112 403 125 47 18 12 97 -54 125 -36 15 -65 16 -105 5z"/>
<path d="M3595 5783 c-60 -16 -144 -122 -185 -236 -44 -119 -103 -253 -206
-465 -57 -117 -104 -214 -104 -216 0 -2 -31 -61 -70 -130 -38 -70 -70 -129
-70 -131 0 -4 -164 -291 -217 -380 -80 -134 -293 -453 -368 -551 -91 -119
-236 -283 -349 -393 -113 -110 -144 -151 -117 -151 5 0 14 7 21 15 7 8 19 15
26 15 8 0 14 4 14 9 0 5 15 18 33 29 94 55 504 450 723 698 369 416 728 994
883 1424 9 25 19 50 23 55 10 17 45 126 63 199 21 82 16 160 -11 186 -21 21
-59 31 -89 23z"/>
<path d="M16430 5740 c-19 -11 -57 -26 -85 -35 -27 -9 -70 -26 -95 -38 -42
-21 -45 -25 -48 -66 -9 -120 71 -429 170 -656 55 -128 72 -160 83 -160 18 0
17 47 0 157 -32 196 -10 577 41 734 27 82 6 103 -66 64z"/>
<path d="M11173 5564 c-42 -32 -54 -79 -47 -173 11 -129 58 -279 120 -377 64
-100 228 -242 301 -260 34 -9 63 15 159 130 172 205 237 386 179 496 -42 80
-181 146 -358 170 -118 15 -154 13 -167 -9 -14 -27 5 -158 37 -248 15 -42 22
-80 18 -90 -22 -57 -155 222 -155 325 0 68 -31 81 -87 36z"/>
<path d="M3933 5573 c-49 -10 -111 -117 -137 -238 -29 -134 -131 -490 -156
-540 -5 -11 -20 -49 -34 -85 -32 -85 -36 -95 -134 -292 -90 -182 -155 -286
-279 -449 -115 -150 -168 -249 -133 -249 42 0 366 310 465 445 32 44 71 97 87
117 15 20 28 40 28 43 0 4 14 26 31 51 54 78 209 394 209 425 0 6 6 23 14 37
28 53 59 157 107 357 21 90 39 251 33 294 -4 27 -16 54 -30 68 -23 23 -29 24
-71 16z"/>
<path d="M15906 5555 c-11 -8 -62 -36 -114 -62 -51 -26 -98 -56 -104 -66 -12
-24 14 -159 47 -237 13 -32 47 -91 74 -133 67 -100 81 -97 81 19 0 90 17 193
55 345 29 112 31 135 9 143 -22 8 -26 7 -48 -9z"/>
<path d="M1855 5351 c-43 -11 -67 -25 -122 -72 -26 -23 -59 -50 -72 -61 -13
-11 -58 -42 -99 -70 -108 -70 -162 -116 -162 -139 0 -10 4 -19 10 -19 16 0
321 138 475 215 124 62 140 73 140 95 0 17 -8 29 -26 37 -35 17 -106 24 -144
14z"/>
<path d="M10540 5255 c-189 -61 -228 -72 -355 -101 -234 -54 -532 -77 -765
-59 -77 5 -83 5 -60 -8 14 -8 77 -25 140 -37 108 -21 138 -23 503 -22 255 1
408 5 448 13 110 22 101 -32 -11 -65 -26 -8 -76 -28 -111 -45 -164 -77 -595
-224 -784 -266 -38 -8 -99 -22 -135 -30 -36 -9 -85 -21 -110 -26 -71 -16 -75
-18 -62 -31 19 -19 325 15 542 59 41 8 98 19 125 23 50 8 157 34 270 64 323
88 719 274 783 369 29 44 18 80 -33 104 -25 12 -38 26 -43 47 -11 40 -64 76
-111 75 -20 0 -124 -29 -231 -64z"/>
<path d="M14820 4989 c-335 -182 -391 -305 -205 -447 17 -12 49 -37 72 -55
107 -83 235 -170 388 -264 200 -123 541 -287 735 -355 258 -89 364 -118 683
-182 43 -9 95 -16 117 -16 21 0 50 -4 64 -10 63 -24 412 -50 661 -50 307 0
500 23 728 84 68 18 77 23 77 41 0 21 -36 28 -88 16 -168 -38 -614 -46 -842
-16 -69 9 -141 19 -160 21 -51 6 -186 33 -255 51 -344 88 -564 174 -837 329
-43 24 -80 44 -83 44 -7 0 -87 55 -210 144 -122 89 -246 196 -391 341 -130
129 -173 178 -278 314 -50 64 -73 66 -176 10z"/>
<path d="M10967 5001 c-16 -10 -49 -37 -75 -59 -80 -71 -175 -145 -247 -195
-39 -26 -108 -75 -155 -108 -94 -66 -381 -240 -475 -287 -276 -138 -338 -167
-467 -216 -158 -61 -197 -74 -268 -95 -101 -30 -120 -39 -120 -52 0 -53 740
145 1017 272 34 16 64 29 67 29 3 0 56 24 119 54 178 85 288 151 500 300 78
55 243 212 257 245 17 42 2 102 -30 118 -35 18 -90 15 -123 -6z"/>
<path d="M2521 4891 c-37 -6 -50 -22 -231 -272 -41 -57 -112 -143 -158 -191
-46 -49 -80 -93 -77 -99 9 -13 30 1 155 101 140 113 281 257 345 352 78 117
74 129 -34 109z"/>
<path d="M11175 4766 c-89 -30 -119 -51 -251 -177 -217 -206 -425 -378 -550
-455 -19 -11 -44 -29 -56 -41 -28 -25 -193 -131 -313 -203 -49 -29 -112 -68
-140 -85 -109 -70 -412 -223 -630 -320 -71 -31 -148 -65 -170 -75 -71 -31
-249 -99 -303 -115 -52 -16 -76 -40 -54 -54 6 -4 49 -12 95 -20 81 -12 87 -12
153 12 212 75 398 147 549 212 55 24 145 62 200 85 232 98 618 285 755 365 30
17 100 58 155 91 262 153 517 348 640 490 165 188 178 232 82 274 -60 26 -116
31 -162 16z"/>
<path d="M17326 4749 c-2 -8 -9 -81 -15 -164 -12 -150 -20 -202 -60 -370 -26
-113 -50 -189 -90 -285 -43 -104 -41 -121 18 -125 14 -2 64 -6 111 -10 69 -6
88 -5 97 7 18 21 21 506 5 673 -17 189 -50 326 -66 274z"/>
<path d="M15756 4651 c-22 -36 -54 -267 -39 -286 21 -28 170 -125 188 -123 22
3 22 33 0 58 -14 16 -95 246 -95 271 0 56 -36 110 -54 80z"/>
<path d="M14196 4611 c-3 -4 -43 -33 -88 -64 -105 -70 -132 -98 -156 -169 -48
-137 -188 -228 -353 -228 -69 0 -90 -17 -66 -54 49 -75 179 -193 288 -262 118
-74 406 -184 578 -220 135 -28 305 -54 356 -54 28 -1 70 -6 95 -11 25 -6 218
-14 430 -18 417 -8 400 -6 665 -77 125 -34 158 -45 347 -120 288 -114 523
-101 948 55 89 32 93 70 8 71 -39 0 -180 18 -353 46 -210 33 -292 46 -340 56
-27 5 -72 13 -100 18 -162 26 -613 131 -795 186 -137 41 -417 139 -510 178
-85 37 -308 146 -390 192 -199 112 -360 255 -470 417 -32 48 -51 67 -67 67
-12 0 -24 -4 -27 -9z m9 -165 c44 -67 162 -180 246 -236 276 -184 511 -294
886 -418 184 -61 201 -66 368 -107 55 -14 123 -32 150 -40 28 -8 76 -22 107
-30 85 -23 86 -39 2 -31 -38 4 -85 11 -104 16 -19 5 -64 14 -100 21 -36 6 -90
18 -120 25 -30 8 -80 14 -112 14 -177 0 -538 53 -793 116 -159 40 -451 142
-539 189 -27 14 -63 33 -79 41 -16 9 -27 17 -25 19 5 5 94 -21 123 -35 28 -13
84 -33 290 -100 230 -75 353 -108 480 -131 28 -5 80 -14 116 -20 70 -13 123
-6 117 14 -3 7 -71 35 -154 63 -205 70 -489 208 -604 294 -19 14 -64 48 -100
75 -88 65 -131 107 -202 193 -55 66 -59 76 -49 98 19 43 55 32 96 -30z"/>
<path d="M16162 4569 c-35 -56 -75 -233 -76 -338 l-1 -84 50 -28 c98 -55 190
-99 208 -99 22 0 22 22 -2 68 -42 83 -90 234 -111 352 -12 69 -24 131 -26 138
-5 19 -28 14 -42 -9z"/>
<path d="M17676 4403 c-3 -10 -8 -52 -11 -93 -14 -162 -62 -349 -111 -440 -40
-74 -31 -80 120 -80 153 0 166 7 148 74 -6 26 -12 61 -12 79 0 17 -7 64 -15
102 -9 39 -20 93 -25 120 -19 98 -53 230 -63 243 -13 17 -25 15 -31 -5z"/>
<path d="M16911 4103 c-6 -21 -11 -45 -11 -53 0 -8 -14 -42 -30 -74 -48 -94
-45 -100 60 -112 l62 -7 -7 74 c-10 110 -34 209 -50 209 -8 0 -19 -17 -24 -37z"/>
<path d="M8910 2937 c-94 -27 -180 -110 -211 -205 -17 -53 -7 -189 18 -237 27
-52 85 -107 147 -139 48 -25 54 -26 245 -26 l195 0 -37 38 c-37 38 -46 65 -27
77 6 4 19 24 30 45 84 165 12 366 -155 436 -51 21 -151 26 -205 11z m169 -131
c42 -22 89 -81 97 -121 25 -133 -70 -245 -196 -233 -181 18 -232 254 -76 349
38 23 134 26 175 5z"/>
<path d="M7371 2882 l-30 -59 39 -70 c21 -39 51 -93 66 -119 15 -27 58 -106
97 -176 l69 -128 79 0 79 0 -21 43 c-22 43 -185 339 -267 484 -31 54 -53 83
-64 83 -11 0 -28 -21 -47 -58z"/>
<path d="M10340 2727 c0 -201 1 -215 23 -257 44 -89 165 -148 278 -136 96 10
180 59 220 129 23 40 24 51 27 260 l3 217 -65 0 -66 0 0 -182 c0 -206 -7 -234
-70 -276 -29 -20 -44 -23 -88 -20 -43 4 -59 11 -87 38 -20 19 -40 50 -45 70
-5 19 -10 110 -10 203 l0 167 -60 0 -60 0 0 -213z"/>
<path d="M12176 2918 c-8 -13 -22 -39 -32 -60 l-17 -36 71 -129 c38 -70 99
-180 134 -243 l63 -115 78 -3 c42 -2 77 1 77 5 0 22 -329 598 -343 601 -9 2
-22 -7 -31 -20z"/>
<path d="M7178 2533 c-56 -103 -104 -191 -106 -195 -2 -5 32 -8 75 -8 l79 0
67 120 c37 66 67 126 67 132 0 11 -68 138 -75 138 -2 0 -50 -84 -107 -187z"/>
<path d="M12021 2637 c-25 -45 -71 -129 -103 -186 -32 -58 -58 -108 -58 -113
0 -5 34 -8 76 -6 l76 3 70 122 69 123 -38 70 c-21 38 -40 70 -43 70 -3 0 -25
-37 -49 -83z"/>
</g>
</svg>
